<svg width="20" height="12" viewBox="0 0 20 12" fill="none" xmlns="http://www.w3.org/2000/svg">
    <path fill-rule="evenodd" clip-rule="evenodd"
        d="M0.769231 0C0.565218 0 0.369561 0.070238 0.225302 0.195262C0.0810437 0.320287 0 0.489856 0 0.666667C0 0.843478 0.0810437 1.01305 0.225302 1.13807C0.369561 1.2631 0.565218 1.33333 0.769231 1.33333H19.2308C19.4348 1.33333 19.6304 1.2631 19.7747 1.13807C19.919 1.01305 20 0.843478 20 0.666667C20 0.489856 19.919 0.320287 19.7747 0.195262C19.6304 0.070238 19.4348 0 19.2308 0H0.769231ZM0 6C0 5.82319 0.0810437 5.65362 0.225302 5.5286C0.369561 5.40357 0.565218 5.33333 0.769231 5.33333H19.2308C19.4348 5.33333 19.6304 5.40357 19.7747 5.5286C19.919 5.65362 20 5.82319 20 6C20 6.17681 19.919 6.34638 19.7747 6.4714C19.6304 6.59643 19.4348 6.66667 19.2308 6.66667H0.769231C0.565218 6.66667 0.369561 6.59643 0.225302 6.4714C0.0810437 6.34638 0 6.17681 0 6ZM0 11.3333C0 11.1565 0.0810437 10.987 0.225302 10.8619C0.369561 10.7369 0.565218 10.6667 0.769231 10.6667H19.2308C19.4348 10.6667 19.6304 10.7369 19.7747 10.8619C19.919 10.987 20 11.1565 20 11.3333C20 11.5101 19.919 11.6797 19.7747 11.8047C19.6304 11.9298 19.4348 12 19.2308 12H0.769231C0.565218 12 0.369561 11.9298 0.225302 11.8047C0.0810437 11.6797 0 11.5101 0 11.3333Z"
        fill="white" />
</svg>