<svg width="61" height="26" viewBox="0 0 61 26" fill="none" xmlns="http://www.w3.org/2000/svg">
    <path
        d="M7.34943 7.67898V6.71591C7.84375 6.71591 8.18608 6.6179 8.37642 6.42188C8.5696 6.22585 8.66619 5.91477 8.66619 5.48864V4.68324C8.66619 4.11222 8.75 3.66335 8.91761 3.33665C9.08807 3.00994 9.3196 2.76989 9.61222 2.61648C9.90767 2.46307 10.2486 2.36648 10.6349 2.3267C11.0213 2.28409 11.4318 2.26278 11.8665 2.26278V3.79261C11.5256 3.79261 11.2699 3.83381 11.0994 3.91619C10.9318 3.99858 10.8196 4.12358 10.7628 4.29119C10.706 4.45881 10.6776 4.67045 10.6776 4.92614V6.01705C10.6776 6.23295 10.6335 6.44034 10.5455 6.6392C10.4574 6.83807 10.2955 7.01562 10.0597 7.17188C9.82386 7.32812 9.48722 7.4517 9.04972 7.54261C8.61506 7.63352 8.0483 7.67898 7.34943 7.67898ZM11.8665 13.0057C11.4318 13.0057 11.0213 12.9844 10.6349 12.9418C10.2486 12.902 9.90767 12.8054 9.61222 12.652C9.3196 12.4986 9.08807 12.2585 8.91761 11.9318C8.75 11.6051 8.66619 11.1562 8.66619 10.5852V9.78409C8.66619 9.35511 8.5696 9.04403 8.37642 8.85085C8.18608 8.65483 7.84375 8.55682 7.34943 8.55682V7.58949C8.0483 7.58949 8.61506 7.63636 9.04972 7.73011C9.48722 7.82102 9.82386 7.9446 10.0597 8.10085C10.2955 8.25426 10.4574 8.4304 10.5455 8.62926C10.6335 8.82812 10.6776 9.03551 10.6776 9.25142V10.3423C10.6776 10.598 10.706 10.8097 10.7628 10.9773C10.8196 11.1449 10.9318 11.2699 11.0994 11.3523C11.2699 11.4347 11.5256 11.4759 11.8665 11.4759V13.0057ZM7.34943 8.55682V6.71591H9.04972V8.55682H7.34943ZM15.3192 12V10.483L18.5025 7.69602C18.7411 7.48011 18.9442 7.28267 19.1119 7.10369C19.2795 6.92187 19.4073 6.74006 19.4954 6.55824C19.5835 6.37358 19.6275 6.1733 19.6275 5.95739C19.6275 5.71591 19.5749 5.50994 19.4698 5.33949C19.3647 5.16619 19.2198 5.03267 19.0352 4.93892C18.8505 4.84517 18.6388 4.7983 18.4002 4.7983C18.1587 4.7983 17.9471 4.84801 17.7653 4.94744C17.5835 5.04403 17.4414 5.18466 17.3391 5.36932C17.2397 5.55398 17.19 5.77841 17.19 6.04261H15.1914C15.1914 5.44886 15.3249 4.93608 15.592 4.50426C15.859 4.07244 16.234 3.74006 16.717 3.5071C17.2028 3.27131 17.7667 3.15341 18.4087 3.15341C19.0707 3.15341 19.646 3.2642 20.1346 3.4858C20.6232 3.70739 21.0011 4.01705 21.2681 4.41477C21.538 4.80966 21.6729 5.26847 21.6729 5.79119C21.6729 6.12358 21.6062 6.45312 21.4727 6.77983C21.3391 7.10653 21.0991 7.46733 20.7525 7.86222C20.4087 8.2571 19.9201 8.73011 19.2866 9.28125L18.2425 10.2443V10.2997H21.7795V12H15.3192ZM26.2912 12.1193C25.6264 12.1193 25.0369 12.0057 24.5227 11.7784C24.0114 11.5483 23.608 11.2315 23.3125 10.8281C23.017 10.4247 22.8665 9.96023 22.8608 9.43466H24.983C24.9915 9.625 25.0526 9.79403 25.1662 9.94176C25.2798 10.0866 25.4347 10.2003 25.6307 10.2827C25.8267 10.3651 26.0497 10.4062 26.2997 10.4062C26.5497 10.4062 26.7699 10.3622 26.9602 10.2741C27.1534 10.1832 27.304 10.0597 27.4119 9.90341C27.5199 9.74432 27.5724 9.5625 27.5696 9.35795C27.5724 9.15341 27.5142 8.97159 27.3949 8.8125C27.2756 8.65341 27.1065 8.52983 26.8878 8.44176C26.6719 8.35369 26.4162 8.30966 26.1207 8.30966H25.2727V6.80966H26.1207C26.3793 6.80966 26.6065 6.76705 26.8026 6.68182C27.0014 6.59659 27.1563 6.47727 27.267 6.32386C27.3778 6.16761 27.4318 5.98864 27.429 5.78693C27.4318 5.59091 27.3849 5.41903 27.2884 5.27131C27.1946 5.12074 27.0625 5.00426 26.892 4.92188C26.7244 4.83949 26.5298 4.7983 26.3082 4.7983C26.0753 4.7983 25.8636 4.83949 25.6733 4.92188C25.4858 5.00426 25.3366 5.12074 25.2259 5.27131C25.1151 5.42187 25.0568 5.59659 25.0511 5.79545H23.0355C23.0412 5.27557 23.1861 4.81818 23.4702 4.4233C23.7543 4.02557 24.1406 3.71449 24.6293 3.49006C25.1207 3.26562 25.6804 3.15341 26.3082 3.15341C26.9332 3.15341 27.483 3.26278 27.9574 3.48153C28.4318 3.70028 28.8011 3.99858 29.0653 4.37642C29.3295 4.75142 29.4616 5.17614 29.4616 5.65057C29.4645 6.14205 29.304 6.54687 28.9801 6.86506C28.6591 7.18324 28.2457 7.37926 27.7401 7.45312V7.52131C28.4162 7.60085 28.9261 7.8196 29.2699 8.17756C29.6165 8.53551 29.7884 8.98295 29.7855 9.51989C29.7855 10.0256 29.6364 10.4744 29.3381 10.8665C29.0426 11.2557 28.6307 11.5625 28.1023 11.7869C27.5767 12.0085 26.973 12.1193 26.2912 12.1193ZM34.5849 12.2131C33.8235 12.2131 33.1673 12.0327 32.6161 11.6719C32.065 11.3082 31.6403 10.7869 31.342 10.108C31.0437 9.42614 30.896 8.60653 30.8988 7.64915C30.9016 6.69176 31.0508 5.87926 31.3462 5.21165C31.6445 4.54119 32.0678 4.03125 32.6161 3.68182C33.1673 3.32955 33.8235 3.15341 34.5849 3.15341C35.3462 3.15341 36.0025 3.32955 36.5536 3.68182C37.1076 4.03125 37.5337 4.54119 37.832 5.21165C38.1303 5.8821 38.2781 6.6946 38.2752 7.64915C38.2752 8.60937 38.1261 9.4304 37.8278 10.1122C37.5295 10.794 37.1048 11.3153 36.5536 11.6761C36.0053 12.0341 35.3491 12.2131 34.5849 12.2131ZM34.5849 10.4872C35.0394 10.4872 35.4073 10.2557 35.6886 9.79261C35.9698 9.3267 36.109 8.61222 36.1062 7.64915C36.1062 7.01847 36.0423 6.49858 35.9144 6.08949C35.7866 5.67756 35.609 5.37074 35.3817 5.16903C35.1545 4.96733 34.8888 4.86648 34.5849 4.86648C34.1332 4.86648 33.7681 5.09517 33.4897 5.55256C33.2113 6.0071 33.0707 6.70597 33.0678 7.64915C33.065 8.28835 33.1261 8.81818 33.2511 9.23864C33.3789 9.65909 33.5579 9.97301 33.788 10.1804C34.0181 10.3849 34.2837 10.4872 34.5849 10.4872ZM42.8029 12.1193C42.1381 12.1193 41.5487 12.0057 41.0344 11.7784C40.5231 11.5483 40.1197 11.2315 39.8242 10.8281C39.5288 10.4247 39.3782 9.96023 39.3725 9.43466H41.4947C41.5032 9.625 41.5643 9.79403 41.6779 9.94176C41.7915 10.0866 41.9464 10.2003 42.1424 10.2827C42.3384 10.3651 42.5614 10.4062 42.8114 10.4062C43.0614 10.4062 43.2816 10.3622 43.4719 10.2741C43.6651 10.1832 43.8157 10.0597 43.9237 9.90341C44.0316 9.74432 44.0842 9.5625 44.0813 9.35795C44.0842 9.15341 44.0259 8.97159 43.9066 8.8125C43.7873 8.65341 43.6183 8.52983 43.3995 8.44176C43.1836 8.35369 42.9279 8.30966 42.6325 8.30966H41.7844V6.80966H42.6325C42.891 6.80966 43.1183 6.76705 43.3143 6.68182C43.5131 6.59659 43.668 6.47727 43.7788 6.32386C43.8896 6.16761 43.9435 5.98864 43.9407 5.78693C43.9435 5.59091 43.8967 5.41903 43.8001 5.27131C43.7063 5.12074 43.5742 5.00426 43.4038 4.92188C43.2362 4.83949 43.0415 4.7983 42.82 4.7983C42.587 4.7983 42.3754 4.83949 42.185 4.92188C41.9975 5.00426 41.8484 5.12074 41.7376 5.27131C41.6268 5.42187 41.5685 5.59659 41.5629 5.79545H39.5472C39.5529 5.27557 39.6978 4.81818 39.9819 4.4233C40.266 4.02557 40.6523 3.71449 41.141 3.49006C41.6325 3.26562 42.1921 3.15341 42.82 3.15341C43.445 3.15341 43.9947 3.26278 44.4691 3.48153C44.9435 3.70028 45.3129 3.99858 45.5771 4.37642C45.8413 4.75142 45.9734 5.17614 45.9734 5.65057C45.9762 6.14205 45.8157 6.54687 45.4918 6.86506C45.1708 7.18324 44.7575 7.37926 44.2518 7.45312V7.52131C44.9279 7.60085 45.4379 7.8196 45.7816 8.17756C46.1282 8.53551 46.3001 8.98295 46.2972 9.51989C46.2972 10.0256 46.1481 10.4744 45.8498 10.8665C45.5543 11.2557 45.1424 11.5625 44.614 11.7869C44.0884 12.0085 43.4847 12.1193 42.8029 12.1193ZM54.169 7.58949V8.55682C53.6776 8.55682 53.3352 8.65483 53.142 8.85085C52.9489 9.04403 52.8523 9.35511 52.8523 9.78409V10.5852C52.8523 11.1562 52.767 11.6051 52.5966 11.9318C52.429 12.2585 52.1974 12.4986 51.902 12.652C51.6094 12.8054 51.2699 12.902 50.8835 12.9418C50.5 12.9844 50.0895 13.0057 49.652 13.0057V11.4759C49.9929 11.4759 50.2472 11.4347 50.4148 11.3523C50.5852 11.2699 50.6989 11.1449 50.7557 10.9773C50.8125 10.8097 50.8409 10.598 50.8409 10.3423V9.25142C50.8409 9.03551 50.8849 8.82812 50.973 8.62926C51.0611 8.4304 51.223 8.25426 51.4588 8.10085C51.6946 7.9446 52.0298 7.82102 52.4645 7.73011C52.902 7.63636 53.4702 7.58949 54.169 7.58949ZM49.652 2.26278C50.0895 2.26278 50.5 2.28409 50.8835 2.3267C51.2699 2.36648 51.6094 2.46307 51.902 2.61648C52.1974 2.76989 52.429 3.00994 52.5966 3.33665C52.767 3.66335 52.8523 4.11222 52.8523 4.68324V5.48864C52.8523 5.91477 52.9489 6.22585 53.142 6.42188C53.3352 6.6179 53.6776 6.71591 54.169 6.71591V7.67898C53.4702 7.67898 52.902 7.63352 52.4645 7.54261C52.0298 7.4517 51.6946 7.32812 51.4588 7.17188C51.223 7.01562 51.0611 6.83807 50.973 6.6392C50.8849 6.44034 50.8409 6.23295 50.8409 6.01705V4.92614C50.8409 4.67045 50.8125 4.45881 50.7557 4.29119C50.6989 4.12358 50.5852 3.99858 50.4148 3.91619C50.2472 3.83381 49.9929 3.79261 49.652 3.79261V2.26278ZM54.169 6.71591V8.55682H52.4688V6.71591H54.169Z"
        fill="url(#paint0_linear_3853_665)" />
    <path
        d="M5.37784 16.8892C5.34943 16.5767 5.22301 16.3338 4.99858 16.1605C4.77699 15.9844 4.46023 15.8963 4.0483 15.8963C3.77557 15.8963 3.5483 15.9318 3.36648 16.0028C3.18466 16.0739 3.0483 16.1719 2.95739 16.2969C2.86648 16.419 2.8196 16.5597 2.81676 16.7188C2.81108 16.8494 2.83665 16.9645 2.89347 17.0639C2.95313 17.1634 3.03835 17.2514 3.14915 17.3281C3.26278 17.402 3.39915 17.4673 3.55824 17.5241C3.71733 17.581 3.89631 17.6307 4.09517 17.6733L4.84517 17.8438C5.27699 17.9375 5.65767 18.0625 5.98722 18.2188C6.3196 18.375 6.59801 18.5611 6.82244 18.777C7.04972 18.9929 7.22159 19.2415 7.33807 19.5227C7.45455 19.804 7.5142 20.1193 7.51705 20.4688C7.5142 21.0199 7.375 21.4929 7.09943 21.8878C6.82386 22.2827 6.42756 22.5852 5.91051 22.7955C5.39631 23.0057 4.77557 23.1108 4.0483 23.1108C3.31818 23.1108 2.68182 23.0014 2.1392 22.7827C1.59659 22.5639 1.17472 22.2315 0.87358 21.7855C0.572443 21.3395 0.417614 20.7756 0.409091 20.0938H2.42898C2.44602 20.375 2.52131 20.6094 2.65483 20.7969C2.78835 20.9844 2.97159 21.1264 3.20455 21.223C3.44034 21.3196 3.71307 21.3679 4.02273 21.3679C4.30682 21.3679 4.5483 21.3295 4.74716 21.2528C4.94886 21.1761 5.10369 21.0696 5.21165 20.9332C5.3196 20.7969 5.375 20.6406 5.37784 20.4645C5.375 20.2997 5.32386 20.1591 5.22443 20.0426C5.125 19.9233 4.97159 19.821 4.7642 19.7358C4.55966 19.6477 4.2983 19.5668 3.98011 19.4929L3.06818 19.2798C2.3125 19.1065 1.71733 18.8267 1.28267 18.4403C0.848011 18.0511 0.632102 17.5256 0.634943 16.8636C0.632102 16.3239 0.776989 15.8509 1.0696 15.4446C1.36222 15.0384 1.76705 14.7216 2.28409 14.4943C2.80114 14.267 3.39063 14.1534 4.05256 14.1534C4.72869 14.1534 5.31534 14.2685 5.8125 14.4986C6.3125 14.7259 6.70028 15.0455 6.97585 15.4574C7.25142 15.8693 7.39205 16.3466 7.39773 16.8892H5.37784ZM8.58239 23V14.2727H10.6918V17.7756H14.1307V14.2727H16.2358V23H14.1307V19.4929H10.6918V23H8.58239ZM19.4467 23H17.1797L20.1243 14.2727H22.9325L25.8771 23H23.6101L21.5604 16.4716H21.4922L19.4467 23ZM19.1442 19.5653H23.8828V21.1676H19.1442V19.5653ZM26.8168 23V14.2727H28.9261V17.7756H32.3651V14.2727H34.4702V23H32.3651V19.4929H28.9261V23H26.8168ZM35.7933 23V14.2727H39.4325C40.0859 14.2727 40.6328 14.3651 41.0732 14.5497C41.5163 14.7344 41.8487 14.9929 42.0703 15.3253C42.2947 15.6577 42.407 16.0426 42.407 16.4801C42.407 16.8125 42.3374 17.1094 42.1982 17.3707C42.0589 17.6293 41.8672 17.8437 41.6229 18.0142C41.3786 18.1847 41.0959 18.304 40.7749 18.3722V18.4574C41.1271 18.4744 41.4524 18.5696 41.7507 18.7429C42.0518 18.9162 42.2933 19.1577 42.4751 19.4673C42.657 19.7741 42.7479 20.1378 42.7479 20.5582C42.7479 21.027 42.6286 21.446 42.3899 21.8153C42.1513 22.1818 41.8061 22.4716 41.3544 22.6847C40.9027 22.8949 40.3544 23 39.7095 23H35.7933ZM37.9027 21.2997H39.2067C39.6641 21.2997 40.0007 21.2131 40.2166 21.0398C40.4354 20.8665 40.5447 20.625 40.5447 20.3153C40.5447 20.0909 40.4922 19.8977 40.3871 19.7358C40.282 19.571 40.1328 19.4446 39.9396 19.3565C39.7464 19.2656 39.5149 19.2202 39.245 19.2202H37.9027V21.2997ZM37.9027 17.8608H39.0703C39.3004 17.8608 39.505 17.8224 39.6839 17.7457C39.8629 17.669 40.0021 17.5582 40.1016 17.4134C40.2038 17.2685 40.255 17.0937 40.255 16.8892C40.255 16.5966 40.1513 16.3665 39.9439 16.1989C39.7365 16.0312 39.4567 15.9474 39.1044 15.9474H37.9027V17.8608ZM51.9993 18.6364C51.9993 19.5966 51.8146 20.4105 51.4453 21.0781C51.076 21.7457 50.576 22.2528 49.9453 22.5994C49.3175 22.946 48.6129 23.1193 47.8317 23.1193C47.0476 23.1193 46.3416 22.9446 45.7138 22.5952C45.0859 22.2457 44.5874 21.7386 44.218 21.0739C43.8516 20.4062 43.6683 19.5937 43.6683 18.6364C43.6683 17.6761 43.8516 16.8622 44.218 16.1946C44.5874 15.527 45.0859 15.0199 45.7138 14.6733C46.3416 14.3267 47.0476 14.1534 47.8317 14.1534C48.6129 14.1534 49.3175 14.3267 49.9453 14.6733C50.576 15.0199 51.076 15.527 51.4453 16.1946C51.8146 16.8622 51.9993 17.6761 51.9993 18.6364ZM49.843 18.6364C49.843 18.0682 49.7621 17.5881 49.6001 17.196C49.4411 16.804 49.2109 16.5071 48.9098 16.3054C48.6115 16.1037 48.2521 16.0028 47.8317 16.0028C47.4141 16.0028 47.0547 16.1037 46.7536 16.3054C46.4524 16.5071 46.2209 16.804 46.0589 17.196C45.8999 17.5881 45.8203 18.0682 45.8203 18.6364C45.8203 19.2045 45.8999 19.6847 46.0589 20.0767C46.2209 20.4687 46.4524 20.7656 46.7536 20.9673C47.0547 21.169 47.4141 21.2699 47.8317 21.2699C48.2521 21.2699 48.6115 21.169 48.9098 20.9673C49.2109 20.7656 49.4411 20.4687 49.6001 20.0767C49.7621 19.6847 49.843 19.2045 49.843 18.6364ZM53.201 23V21.7983L57.4411 15.9858H53.2053V14.2727H60.1087V15.4744L55.8686 21.2869H60.1044V23H53.201Z"
        fill="url(#paint1_linear_3853_665)" />
    <defs>
        <linearGradient id="paint0_linear_3853_665" x1="31" y1="0" x2="31" y2="15" gradientUnits="userSpaceOnUse">
            <stop offset="0.3" stop-color="#A7A7A7" />
            <stop offset="1" stop-color="#DCDCEA" />
        </linearGradient>
        <linearGradient id="paint1_linear_3853_665" x1="30.5" y1="11" x2="30.5" y2="26" gradientUnits="userSpaceOnUse">
            <stop offset="0.3" stop-color="#A7A7A7" />
            <stop offset="1" stop-color="#DCDCEA" />
        </linearGradient>
    </defs>
</svg>