<svg width="14" height="12" viewBox="0 0 14 12" fill="none" xmlns="http://www.w3.org/2000/svg">
    <path fill-rule="evenodd" clip-rule="evenodd"
        d="M2.7 2.10005C2.52761 2.10005 2.36228 2.16853 2.24038 2.29043C2.11848 2.41233 2.05 2.57766 2.05 2.75005V9.25005C2.05 9.42244 2.11848 9.58777 2.24038 9.70967C2.36228 9.83157 2.52761 9.90005 2.7 9.90005H11.8C11.9724 9.90005 12.1377 9.83157 12.2596 9.70967C12.3815 9.58777 12.45 9.42244 12.45 9.25005V2.75005C12.45 2.57766 12.3815 2.41233 12.2596 2.29043C12.1377 2.16853 11.9724 2.10005 11.8 2.10005H2.7ZM1.32114 1.37119C1.68684 1.00549 2.18283 0.800049 2.7 0.800049H11.8C12.3172 0.800049 12.8132 1.00549 13.1789 1.37119C13.5446 1.73689 13.75 2.23288 13.75 2.75005V9.25005C13.75 9.76722 13.5446 10.2632 13.1789 10.6289C12.8132 10.9946 12.3172 11.2 11.8 11.2H2.7C2.18283 11.2 1.68684 10.9946 1.32114 10.6289C0.955446 10.2632 0.75 9.76722 0.75 9.25005V2.75005C0.75 2.23288 0.955446 1.73689 1.32114 1.37119Z"
        fill="#FFF" />
    <path fill-rule="evenodd" clip-rule="evenodd"
        d="M0.859235 2.38961C1.05836 2.09092 1.46192 2.01021 1.76061 2.20933L7.25 5.86891L12.7394 2.20933C13.0381 2.01021 13.4416 2.09092 13.6408 2.38961C13.8399 2.6883 13.7592 3.09186 13.4605 3.29098L7.61055 7.19093C7.39222 7.33649 7.10778 7.33649 6.88945 7.19093L1.03951 3.29098C0.74082 3.09186 0.660108 2.6883 0.859235 2.38961Z"
        fill="#FFF" />
</svg>