<svg width="23" height="23" viewBox="0 0 23 23" fill="none" xmlns="http://www.w3.org/2000/svg">
    <circle cx="11.5" cy="11.5" r="11" stroke="white" />
    <path
        d="M12.4745 12.842L11.0891 11.336L11.1055 11.318C12.0295 10.1883 12.7199 8.85155 13.1291 7.4H14.7273V6.2H10.9091V5H9.81818V6.2H6V7.4H12.0927C11.7273 8.552 11.1491 9.65 10.3636 10.61C9.85636 9.992 9.43636 9.314 9.10364 8.6H8.01273C8.41091 9.578 8.95636 10.502 9.63818 11.336L6.86182 14.348L7.63636 15.2L10.3636 12.2L12.06 14.066L12.4745 12.842ZM15.5455 9.8H14.4545L12 17H13.0909L13.7018 15.2H16.2927L16.9091 17H18L15.5455 9.8ZM14.1164 14L15 11.402L15.8836 14H14.1164Z"
        fill="white" />
</svg>