<svg width="12" height="12" viewBox="0 0 12 12" fill="none" xmlns="http://www.w3.org/2000/svg">
    <path fill-rule="evenodd" clip-rule="evenodd"
        d="M4.07456 3.32469C4.5568 2.84245 5.21085 2.57153 5.89284 2.57153C6.57482 2.57153 7.22888 2.84245 7.71111 3.32469C8.19335 3.80692 8.46427 4.46098 8.46427 5.14296C8.46427 5.82495 8.19335 6.479 7.71111 6.96124C7.22888 7.44347 6.57482 7.71439 5.89284 7.71439C5.21085 7.71439 4.5568 7.44347 4.07456 6.96124C3.59233 6.479 3.32141 5.82495 3.32141 5.14296C3.32141 4.46098 3.59233 3.80692 4.07456 3.32469ZM5.89284 3.85725C5.55185 3.85725 5.22482 3.99271 4.9837 4.23382C4.74258 4.47494 4.60713 4.80197 4.60713 5.14296C4.60713 5.48395 4.74258 5.81098 4.9837 6.0521C5.22482 6.29322 5.55185 6.42868 5.89284 6.42868C6.23383 6.42868 6.56086 6.29322 6.80198 6.0521C7.0431 5.81098 7.17855 5.48395 7.17855 5.14296C7.17855 4.80197 7.0431 4.47494 6.80198 4.23382C6.56086 3.99271 6.23383 3.85725 5.89284 3.85725Z"
        fill="#FFF" />
    <path fill-rule="evenodd" clip-rule="evenodd"
        d="M5.89286 1.1716C5.10174 1.1716 4.32839 1.41209 3.6706 1.86266C3.01281 2.31323 2.50012 2.95365 2.19736 3.70292C1.8946 4.4522 1.81538 5.27668 1.9697 6.07212C2.12402 6.86752 2.50494 7.59816 3.0643 8.17164C3.06428 8.17162 3.06432 8.17166 3.0643 8.17164L5.48929 10.657C5.59643 10.7668 5.74169 10.8284 5.89314 10.8284C6.04459 10.8284 6.18985 10.7668 6.297 10.657L8.72136 8.1717C8.72135 8.1717 8.72136 8.17169 8.72136 8.1717C9.28074 7.59821 9.66169 6.86755 9.81601 6.07212C9.97034 5.27668 9.89111 4.4522 9.58835 3.70292C9.2856 2.95365 8.77291 2.31323 8.11512 1.86266C7.45732 1.41209 6.68397 1.1716 5.89286 1.1716ZM3.03567 0.888508C3.8814 0.309203 4.87571 0 5.89286 0C6.91001 0 7.90431 0.309203 8.75005 0.888508C9.59578 1.46781 10.255 2.2912 10.6442 3.25456C11.0335 4.21791 11.1353 5.27796 10.9369 6.30066C10.7385 7.32336 10.2487 8.26278 9.5295 9.00012L7.10492 11.4857C6.78348 11.8149 6.3475 12 5.89314 12C5.43879 12 5.00301 11.8151 4.68157 11.4859L2.25627 9.00018C1.53706 8.26284 1.04722 7.32336 0.848801 6.30066C0.650385 5.27796 0.752246 4.21791 1.1415 3.25456C1.53076 2.2912 2.18994 1.46781 3.03567 0.888508Z"
        fill="#FFF" />
</svg>