<svg width="15" height="14" viewBox="0 0 15 14" fill="none" xmlns="http://www.w3.org/2000/svg">
    <path fill-rule="evenodd" clip-rule="evenodd"
        d="M2.73947 2.72622C2.56359 2.72622 2.39492 2.79609 2.27055 2.92045C2.1502 3.04081 2.08088 3.20266 2.07653 3.37238C2.22905 5.78888 3.25779 8.06711 4.97029 9.77961C6.6828 11.4921 8.96103 12.5209 11.3775 12.6734C11.5472 12.669 11.7091 12.5997 11.8295 12.4794C11.9538 12.355 12.0237 12.1863 12.0237 12.0104V9.80678L9.64914 8.85696L8.94497 10.0306C8.7674 10.3265 8.39253 10.4368 8.08299 10.2841C6.51201 9.50936 5.24055 8.23789 4.46577 6.66691C4.31311 6.35738 4.42339 5.9825 4.71933 5.80493L5.89295 5.10077L4.94313 2.72622H2.73947ZM1.3327 1.98261C1.7058 1.60951 2.21183 1.3999 2.73947 1.3999H5.39211C5.66327 1.3999 5.90712 1.565 6.00783 1.81677L7.33415 5.13256C7.45503 5.43477 7.33872 5.78004 7.05961 5.9475L5.94949 6.61358C6.49584 7.50461 7.24529 8.25406 8.13632 8.80042L8.8024 7.69029C8.96986 7.41118 9.31513 7.29487 9.61734 7.41576L12.9331 8.74207C13.1849 8.84278 13.35 9.08663 13.35 9.3578V12.0104C13.35 12.5381 13.1404 13.0441 12.7673 13.4172C12.3942 13.7903 11.8882 13.9999 11.3605 13.9999C11.3471 13.9999 11.3337 13.9995 11.3203 13.9987C8.57182 13.8317 5.9795 12.6645 4.03245 10.7175C2.08539 8.7704 0.918248 6.17808 0.751221 3.4296C0.750407 3.41621 0.75 3.40279 0.75 3.38938C0.75 2.86173 0.959605 2.3557 1.3327 1.98261Z"
        fill="#FFF" />
    <path fill-rule="evenodd" clip-rule="evenodd"
        d="M9.15002 3.50005C9.15002 3.11345 9.46343 2.80005 9.85002 2.80005C10.407 2.80005 10.9411 3.0213 11.3349 3.41512C11.7288 3.80895 11.95 4.34309 11.95 4.90005C11.95 5.28665 11.6366 5.60005 11.25 5.60005C10.8634 5.60005 10.55 5.28665 10.55 4.90005C10.55 4.7144 10.4763 4.53635 10.345 4.40507C10.2137 4.2738 10.0357 4.20005 9.85002 4.20005C9.46343 4.20005 9.15002 3.88665 9.15002 3.50005Z"
        fill="#FFF" />
    <path fill-rule="evenodd" clip-rule="evenodd"
        d="M9.15002 0.7C9.15002 0.313401 9.46343 0 9.85002 0C11.1496 0 12.3959 0.516249 13.3148 1.43518C14.2338 2.35411 14.75 3.60044 14.75 4.9C14.75 5.2866 14.4366 5.6 14.05 5.6C13.6634 5.6 13.35 5.2866 13.35 4.9C13.35 3.97174 12.9813 3.0815 12.3249 2.42513C11.6685 1.76875 10.7783 1.4 9.85002 1.4C9.46343 1.4 9.15002 1.0866 9.15002 0.7Z"
        fill="#FFF" />
</svg>