<svg width="23" height="23" viewBox="0 0 23 23" fill="none" xmlns="http://www.w3.org/2000/svg">
    <circle cx="11.5" cy="11.5" r="11" stroke="white" />
    <path
        d="M15.3077 9.8209C15.3077 11.1559 14.7088 12.3426 13.7818 13.0865L14.1972 13.6798C14.7573 13.2312 15.2118 12.6488 15.5248 11.9789C15.8378 11.309 16.0005 10.57 16 9.8209H15.3077ZM11.5 5.74168C12.5099 5.74168 13.4784 6.17145 14.1924 6.93645C14.9065 7.70146 15.3077 8.73902 15.3077 9.8209H16C16 8.54232 15.5259 7.3161 14.682 6.41201C13.8381 5.50791 12.6935 5 11.5 5V5.74168ZM7.69231 9.8209C7.69231 8.73902 8.09347 7.70146 8.80756 6.93645C9.52164 6.17145 10.4901 5.74168 11.5 5.74168V5C10.3065 5 9.16193 5.50791 8.31802 6.41201C7.47411 7.3161 7 8.54232 7 9.8209H7.69231ZM9.21815 13.0865C8.74406 12.707 8.35924 12.2142 8.09434 11.6472C7.82943 11.0803 7.69177 10.4549 7.69231 9.8209H7C6.99952 10.57 7.16223 11.309 7.47519 11.9789C7.78816 12.6488 8.24274 13.2312 8.80277 13.6798L9.21815 13.0865ZM10.4595 17.0545C10.4384 15.9699 10.2292 14.899 9.84262 13.8964L9.20292 14.179C9.556 15.0942 9.74846 16.0755 9.76785 17.0701L10.4595 17.0545ZM12.5835 16.984C12.247 17.1642 11.8761 17.258 11.5 17.258C11.1239 17.258 10.753 17.1642 10.4165 16.984L10.1071 17.6478C10.5396 17.8794 11.0165 18 11.5 18C11.9835 18 12.4604 17.8794 12.8929 17.6478L12.5835 16.984ZM13.1581 13.8964C12.7712 14.8992 12.5618 15.9704 12.5405 17.0552L13.2328 17.0701C13.2515 16.0755 13.444 15.095 13.7971 14.1797L13.1581 13.8964ZM12.8929 17.6478C12.9932 17.5938 13.0779 17.5114 13.1377 17.4096C13.1974 17.3077 13.2301 17.1903 13.2322 17.0701L12.5398 17.0552C12.5403 17.0402 12.5446 17.0256 12.5523 17.013C12.56 17.0005 12.5708 16.9904 12.5835 16.984L12.8929 17.6478ZM9.76785 17.0701C9.76988 17.1903 9.80256 17.3077 9.86234 17.4096C9.92213 17.5114 10.0068 17.5938 10.1071 17.6478L10.4165 16.984C10.429 16.9905 10.4396 17.0004 10.4471 17.0129C10.4547 17.0253 10.459 17.0397 10.4595 17.0545L9.76785 17.0701ZM8.80277 13.6806C9.02292 13.8571 9.07277 13.9009 9.09354 13.9298L9.64046 13.4751C9.547 13.3461 9.39608 13.2304 9.21815 13.0865L8.80277 13.6806ZM9.84262 13.8964C9.78238 13.7407 9.73185 13.602 9.64046 13.4751L9.09354 13.9298C9.11569 13.9609 9.13092 13.9928 9.20292 14.179L9.84262 13.8964ZM13.7818 13.0872C13.6039 13.2296 13.453 13.3468 13.3595 13.4751L13.9065 13.9298C13.9272 13.9009 13.9764 13.8571 14.1972 13.6798L13.7818 13.0872ZM13.7971 14.1797C13.8691 13.9936 13.8843 13.9609 13.9072 13.9298L13.3602 13.4751C13.2682 13.602 13.2176 13.7407 13.1574 13.8964L13.7971 14.1797Z"
        fill="white" />
    <path d="M13.2308 14.6418C12.1197 15.1179 10.8803 15.1179 9.76923 14.6418" stroke="white" />
    <path
        d="M10.8077 12.7875V9.63535C10.8077 9.12359 10.42 8.70825 9.94229 8.70825C9.4646 8.70825 9.0769 9.12359 9.0769 9.63535C9.0769 10.1471 9.4646 10.5624 9.94229 10.5624H13.0577C13.5354 10.5624 13.9231 10.1471 13.9231 9.63535C13.9231 9.12359 13.5354 8.70825 13.0577 8.70825C12.58 8.70825 12.1923 9.12359 12.1923 9.63535V12.7875"
        stroke="white" stroke-linecap="round" />
</svg>