<svg width="66" height="26" viewBox="0 0 66 26" fill="none" xmlns="http://www.w3.org/2000/svg">
    <path
        d="M0.0240002 26H7.908C15.288 26 20.544 20.78 20.544 13.4C20.544 5.984 15.288 0.799998 7.908 0.799998H0.0240002V26ZM7.908 4.58C12.732 4.58 16.44 8.432 16.44 13.4C16.44 18.368 12.732 22.22 7.908 22.22H4.056V4.58H7.908ZM25.0201 26H40.5361V22.292H29.0521V0.799998H25.0201V26ZM41.3748 26H45.6588L48.1428 19.7H59.0508L61.5348 26H65.8188L55.7388 0.799998H51.4548L41.3748 26ZM49.5468 16.1L53.5788 5.732L57.6468 16.1H49.5468Z"
        fill="black" />
</svg>