<svg width="33" height="35" viewBox="0 0 33 35" fill="none" xmlns="http://www.w3.org/2000/svg">
    <path fill-rule="evenodd" clip-rule="evenodd"
        d="M0.437012 1.79102C0.437012 0.80052 1.23997 -0.00244141 2.23048 -0.00244141H8.03698C9.02748 -0.00244141 9.83044 0.80052 9.83044 1.79102V6.49092H20.8901C21.8806 6.49092 22.6836 7.29388 22.6836 8.28439C22.6836 9.27489 21.8806 10.0779 20.8901 10.0779H9.83044V14.9558H17.3223C18.3128 14.9558 19.1158 15.7588 19.1158 16.7493C19.1158 17.7398 18.3128 18.5428 17.3223 18.5428H9.83044V23.4589H30.716C31.7065 23.4589 32.5095 24.2618 32.5095 25.2524C32.5095 26.2429 31.7065 27.0458 30.716 27.0458H8.03698C7.04648 27.0458 6.24351 26.2429 6.24351 25.2524V16.7493V8.28439V3.58449H2.23048C1.23997 3.58449 0.437012 2.78153 0.437012 1.79102ZM13.5172 31.6187C13.5172 32.9815 12.4125 34.0863 11.0496 34.0863C9.68682 34.0863 8.58204 32.9815 8.58204 31.6187C8.58204 30.2558 9.68682 29.1511 11.0496 29.1511C12.4125 29.1511 13.5172 30.2558 13.5172 31.6187ZM24.6846 34.0863C26.0474 34.0863 27.1522 32.9815 27.1522 31.6187C27.1522 30.2558 26.0474 29.1511 24.6846 29.1511C23.3218 29.1511 22.217 30.2558 22.217 31.6187C22.217 32.9815 23.3218 34.0863 24.6846 34.0863Z"
        fill="#0466C8" />
</svg>