<svg width="256" height="256" viewBox="0 0 256 256" fill="none" xmlns="http://www.w3.org/2000/svg">
    <g clip-path="url(#clip0_1812_3538)">
        <rect width="256" height="256" rx="48" fill="#0BB89F" />
        <path fill-rule="evenodd" clip-rule="evenodd"
            d="M222.897 81.1882C223.99 60.3648 208.967 18 153.246 18C97.5255 18 82.6379 61.0829 82.1592 82.6243C81.4412 91.959 83.8825 115.367 99.3924 134.324C99.3924 134.417 98.7332 134.27 97.5451 134.004C89.5913 132.223 57.9342 125.135 41.6911 149.5C23.0218 177.504 41.6911 206.196 62.0539 219.772C81.4412 232.696 124.824 243.969 162.849 219.772C194.444 199.666 193.247 159.695 186.545 140.786C198.273 138.393 221.011 117.091 222.897 81.1882ZM149.656 97.7033L159.709 81.9063C157.076 80.2308 150.661 78.4596 146.066 84.7785C141.47 91.0973 146.544 96.0279 149.656 97.7033Z"
            fill="white" />
        <path
            d="M164.606 127.825C164.542 129.41 165.775 130.747 167.36 130.811C168.945 130.875 170.282 129.642 170.346 128.057L164.606 127.825ZM171.317 112.714C170.239 114.101 168.66 116.435 167.312 119.07C165.996 121.641 164.727 124.827 164.606 127.825L170.346 128.057C170.416 126.323 171.223 124.036 172.426 121.687C173.595 119.401 174.974 117.369 175.853 116.239L171.317 112.714Z"
            fill="#0BB89F" />
        <path
            d="M179.353 106.577C210.947 71.3918 179.353 46.9785 152.785 46.9785C102 46.9785 96.4999 100 134.834 125.965C161.264 143.867 163.795 162.585 151.349 181.254C136.988 202.795 96.7774 209.976 77.3901 189.153C58.9717 169.37 73.3512 156.84 90.3149 163.303C105.394 169.047 112.663 172.192 122.627 174.792C139.142 179.101 152.785 174.792 151.349 174.792"
            stroke="#0BB89F" stroke-width="14.361" stroke-linecap="round" />
    </g>
    <defs>
        <clipPath id="clip0_1812_3538">
            <rect width="256" height="256" fill="white" />
        </clipPath>
    </defs>
</svg>